<?xml version="1.0" encoding="utf-8"?>
<!-- Generator: Adobe Illustrator 24.0.1, SVG Export Plug-In . SVG Version: 6.00 Build 0)  -->
<svg version="1.1" id="图层_1" xmlns="http://www.w3.org/2000/svg" xmlns:xlink="http://www.w3.org/1999/xlink" x="0px" y="0px"
	 viewBox="0 0 200 200" style="enable-background:new 0 0 200 200;" xml:space="preserve">
<style type="text/css">
	.st0{fill-rule:evenodd;clip-rule:evenodd;fill:url(#SVGID_1_);}
	.st1{fill-rule:evenodd;clip-rule:evenodd;fill:#1D2087;}
</style>
<linearGradient id="SVGID_1_" gradientUnits="userSpaceOnUse" x1="98.8574" y1="187.964" x2="98.7493" y2="-53.83">
	<stop  offset="0" style="stop-color:#E50012"/>
	<stop  offset="0.2006" style="stop-color:#EC3E1D"/>
	<stop  offset="0.4022" style="stop-color:#F37426"/>
	<stop  offset="0.5902" style="stop-color:#F89F2D"/>
	<stop  offset="0.7583" style="stop-color:#FCBE33"/>
	<stop  offset="0.9006" style="stop-color:#FED136"/>
	<stop  offset="1" style="stop-color:#FFD837"/>
</linearGradient>
<path class="st0" d="M162.41,161.59C144.79,179.2,123.6,188,98.82,188c-24.79,0-45.97-8.8-63.59-26.41
	C17.62,143.97,8.82,122.79,8.82,98c0-24.77,8.8-45.97,26.41-63.59C52.84,16.8,74.03,8,98.82,8c24.79,0,45.97,8.8,63.59,26.41
	c17.6,17.62,26.41,38.83,26.41,63.59C188.82,122.79,180.02,143.97,162.41,161.59L162.41,161.59z M16.73,94.09h35.17
	c0.28-14.72,2.19-28.08,5.72-40.08c-8.06-2.12-15.49-4.94-22.3-8.45C23.69,59.41,17.49,75.59,16.73,94.09L16.73,94.09z M59.73,94.09
	h35.18V58.83c-10.56-0.2-20.39-1.21-29.5-3.02C61.92,67.38,60.02,80.13,59.73,94.09L59.73,94.09z M102.74,94.09h35.17
	c-0.3-13.96-2.19-26.72-5.69-38.28c-9.1,1.82-18.93,2.82-29.48,3.02V94.09L102.74,94.09z M145.74,94.09h35.17
	c-0.76-18.51-6.96-34.7-18.6-48.55c-6.8,3.52-14.23,6.34-22.28,8.47C143.55,66.01,145.46,79.37,145.74,94.09L145.74,94.09z
	 M180.91,101.92h-35.17c-0.29,14.68-2.18,28.04-5.69,40.07c8.05,2.12,15.47,4.94,22.27,8.44
	C173.94,136.61,180.14,120.43,180.91,101.92L180.91,101.92z M137.91,101.92h-35.17v35.25c10.55,0.2,20.38,1.21,29.48,3.02
	C135.72,128.64,137.61,115.88,137.91,101.92L137.91,101.92z M94.91,101.92H59.73c0.3,13.98,2.2,26.75,5.7,38.31
	c9.14-1.84,18.97-2.86,29.48-3.07V101.92L94.91,101.92z M51.89,101.92H16.73c0.76,18.51,6.97,34.71,18.61,48.55
	c6.86-3.49,14.29-6.3,22.29-8.42C54.09,130.04,52.18,116.66,51.89,101.92L51.89,101.92z M156.76,39.53
	c-10.33-10.24-22.09-17.16-35.27-20.77c3.78,4.01,7.31,9.15,10.58,15.41c2.06,3.93,3.88,8.06,5.48,12.39
	C144.48,44.76,150.89,42.41,156.76,39.53L156.76,39.53z M76.14,18.76c-13.19,3.6-24.95,10.53-35.28,20.78
	c5.88,2.89,12.29,5.23,19.22,7.03c1.6-4.33,3.42-8.46,5.48-12.4C68.83,27.91,72.36,22.78,76.14,18.76L76.14,18.76z M40.87,156.47
	c10.33,10.24,22.09,17.16,35.27,20.77c-3.78-4.01-7.31-9.15-10.58-15.41c-2.06-3.93-3.89-8.06-5.48-12.39
	C53.15,151.24,46.75,153.59,40.87,156.47L40.87,156.47z M121.63,177.2c13.12-3.61,24.83-10.52,35.12-20.73
	c-5.86-2.88-12.24-5.21-19.14-7.01c-1.61,4.4-3.45,8.61-5.53,12.63C128.84,168.21,125.36,173.25,121.63,177.2L121.63,177.2z
	 M67.96,48.34c8.31,1.59,17.29,2.47,26.95,2.66V16.22c-8.83,1.8-16.65,9.82-23.49,24.05C70.17,42.89,69.01,45.58,67.96,48.34
	L67.96,48.34z M102.74,51c9.65-0.19,18.63-1.08,26.93-2.67c-1.05-2.76-2.2-5.45-3.46-8.06c-6.83-14.22-14.65-22.23-23.47-24.05V51
	L102.74,51z M129.67,147.67c-8.3-1.59-17.28-2.48-26.93-2.67v34.77c8.82-1.81,16.64-9.82,23.47-24.07
	C127.47,153.1,128.62,150.42,129.67,147.67L129.67,147.67z M94.91,145c-9.66,0.19-18.64,1.08-26.94,2.67
	c1.05,2.76,2.2,5.44,3.45,8.04c6.84,14.26,14.66,22.27,23.49,24.07V145z"/>
<path class="st1" d="M193.52,123.63c1.55-8.74,2.33-25.5,1.26-33.7c-0.66-5.14-2.27-9.01-4.54-11.26c-2.33-2.25-5.38-2.88-8.85-1.35
	c-1.73,0.72-3.53,2.43-4.9,4.23c0.12-1.44-0.06-2.52-0.48-3.33c-0.54-1.26-1.61-1.71-2.51-1.26c-0.84,0.36-1.61,1.44-1.79,3.15
	c-1.49,13.25-2.09,30.46,0.24,43.43c0.24,1.35,0.78,2.34,1.31,2.79c1.08,0.9,2.39,0.36,3.05-0.99c0.36-0.72,0.54-1.62,0.36-2.52
	c-1.32-9.64-1.91-20.45-1.14-30.82c1.73-3.87,4.9-7.21,7.95-8.02c3.77-1.08,6.57,2.07,6.87,7.93c0.42,9.37,0,21.45-1.37,29.46
	c-0.24,1.26-0.18,2.43,0.12,3.33c0.54,1.44,1.55,2.07,2.51,1.8C192.44,126.34,193.22,125.35,193.52,123.63z"/>
<path class="st1" d="M131.7,136.84c1.99-4,3.34-9.6,3.6-17.33c0.32-8.93-0.97-15.47-3.07-20.27c-2.37-5.33-5.76-8.27-9.14-10.13
	c-3.12-1.6-8.45-4.8-10.6-9.87c-0.81-2-1.4-4.27-1.45-7.2c-0.05-3.47,0.32-6.53,1.4-8.67c1.13-2.4,2.47-4,3.98-5.07
	c5.22-3.47,10.33,0.53,14.26,9.6c1.18,2.8,3.23,0.53,3.5-3.33c0.05-1.73-0.22-3.73-1.02-5.6c-5.27-12-12-14.93-18.77-10.27
	c-3.77,2.67-6.78,8.67-7.48,18.67c-0.65,9.47,0.97,16.53,4.03,22.13c2.47,4.53,7.48,8,11.08,9.87c2.21,1.2,5.38,3.73,7.05,7.47
	c1.56,3.47,2.21,8.4,1.99,12.8c-0.27,4.13-1.24,8-2.9,10.4c-5.16,7.2-13.88,5.07-18.29-4.4c-0.65-1.47-1.34-1.87-1.94-1.6
	c-1.13,0.4-1.99,2.8-1.99,5.47c0,1.2,0.21,2.53,0.7,3.6c4.41,9.47,9.95,12.4,15.92,11.47C126,144.04,129.28,141.64,131.7,136.84z"/>
<path class="st1" d="M96.67,139.69c1.99-4.13,3.34-9.9,3.6-17.88c0.32-9.22-0.97-15.95-3.07-20.91c-2.37-5.5-5.76-8.53-9.14-10.45
	c-3.12-1.65-8.45-4.95-10.6-10.18c-0.81-2.06-1.4-4.4-1.45-7.43c-0.05-3.58,0.32-6.74,1.4-8.94c1.13-2.48,2.47-4.13,3.98-5.23
	c5.22-3.58,10.33,0.55,14.26,9.9c1.18,2.89,3.23,0.55,3.5-3.44c0.05-1.79-0.22-3.85-1.02-5.78c-5.27-12.38-12-15.4-18.77-10.59
	c-3.77,2.75-6.78,8.94-7.48,19.25c-0.65,9.76,0.97,17.05,4.03,22.83c2.47,4.68,7.48,8.25,11.08,10.18c2.21,1.24,5.38,3.85,7.05,7.7
	c1.56,3.58,2.21,8.66,1.99,13.2c-0.27,4.26-1.24,8.25-2.9,10.73c-5.16,7.43-13.88,5.23-18.29-4.54c-0.65-1.51-1.34-1.93-1.94-1.65
	c-1.13,0.41-1.99,2.89-1.99,5.64c0,1.24,0.21,2.61,0.7,3.71c4.41,9.76,9.95,12.79,15.92,11.83
	C90.97,147.11,94.25,144.64,96.67,139.69z"/>
<path class="st1" d="M73.87,116.83c0.83-0.56,1.14-1.29,1.08-2.02c-0.06-0.84-0.76-1.57-1.65-1.91c-0.64-0.22-1.46-0.22-2.22,0.22
	c-2.73,1.63-6.1,3.15-9.47,3.65c-4.77,0.67-9.41-1.01-11.31-5.06c-1.27-2.64-1.46-6.75-0.7-9.56c0.64-2.47,2.16-4.5,4.19-5.79
	c4.96-3.26,12.08-1.69,15.83,2.42c0.76,0.79,1.65,1.12,2.42,1.07c1.02-0.06,1.91-0.79,2.16-1.69c0.25-0.73,0.13-1.57-0.57-2.3
	c-2.86-3.09-6.93-5-11.25-5.51c-6.8-0.73-13.28,2.14-16.33,7.59c-2.42,4.33-2.48,11.24-0.06,15.8c3.18,6.02,9.41,8.04,16.59,7.31
	C65.61,120.71,70.69,118.96,73.87,116.83z"/>
<path class="st1" d="M45.53,127.66c1.36-0.55,2-1.75,2.08-2.95c0.08-1.2-0.32-2.4-1.04-3.14c-0.72-0.74-1.84-1.11-3.04-0.55
	c-4.63,2.03-11.74,4.43-17.09,4.61c-7.03,0.18-13.42-2.49-15.1-11.16c-0.8-3.97-0.56-8.95-0.24-13.1
	c7.11-0.46,14.06,0.46,20.69,1.94c1.36,0.28,2.4-0.18,3.12-1.01c0.8-1.01,1.12-2.49,0.72-3.78c-0.4-1.11-1.28-2.03-2.8-2.31
	c-6.79-1.38-13.9-2.12-21.17-1.94c0.64-5.44,2.32-15.5,3.35-21.03c9.75-1.75,19.73-1.94,28.84-1.11c3.91,0.37,4.31-6.55,0.64-6.92
	c-12.62-1.2-26.04-0.55-37.94,2.77c-4.23,1.2-2.88,7.56,0.48,7.01c0.4-0.09,0.8-0.09,1.04-0.09c-1.68,9.78-3.83,23.25-3.67,33.85
	c0.08,4.89,0.88,9.04,2.24,12.45c3.59,8.76,10.86,11.44,18.77,11.35C32.35,132.55,39.54,130.25,45.53,127.66z"/>
<path class="st1" d="M166.92,103.17c1.92-1.39,2.87-3.4,2.87-6.08c0-5.52-5.01-9.64-12.01-10.81c-7.22-1.17-14.59,0.67-18.71,5.41
	c-3.24,3.68-4.27,9.03-3.02,13.71c1.77,6.74,7.88,11.26,17.17,11.48c2.06,0.06,6.78-0.33,9.06-1c1.11-0.33,1.69-0.89,1.92-1.56
	c0.29-0.89-0.07-1.84-0.96-2.34c-0.66-0.33-1.55-0.45-2.58-0.22c-3.02,0.56-6.48,0.95-9.58,0.56c-5.23-0.67-8.33-3.73-9.28-7.47
	c4.79,0.45,12.16,0.89,17.31,0.61C162.43,105.23,165.08,104.5,166.92,103.17L166.92,103.17z M162.28,93.3
	c1.18,1.23,1.84,3.07,1.55,4.74c-0.44,2.23-2.5,3.23-5.38,3.34c-5.3,0.28-12.16-0.11-16.95-0.72c0.07-4.4,2.21-8.47,8.18-9.87
	C154.03,89.73,159.48,90.29,162.28,93.3z"/>
</svg>
